<svg width="20" height="20" viewBox="0 0 20 20" fill="none" xmlns="http://www.w3.org/2000/svg">
<path fill-rule="evenodd" clip-rule="evenodd" d="M17.7778 0C18.3671 0 18.9322 0.234294 19.349 0.651042C19.7657 1.06779 20 1.63285 20 2.22222V17.7778C20 18.3671 19.7657 18.9322 19.349 19.349C18.9322 19.7657 18.3671 20 17.7778 20H2.22222C1.63285 20 1.06779 19.7657 0.651042 19.349C0.234294 18.9322 0 18.3671 0 17.7778V2.22222C0 1.63285 0.234294 1.06779 0.651042 0.651042C1.06779 0.234294 1.63285 0 2.22222 0H17.7778ZM2.77778 17.2222H5.85504V7.92209H2.77778V17.2222ZM13.6003 7.71159C12.6558 7.71159 11.5555 8.28915 11.0221 9.15582V7.92209H7.92209V17.2222H11.0221V11.7448C11.0221 10.8894 11.7109 10.1891 12.5662 10.1888C12.9787 10.1888 13.3747 10.3528 13.6665 10.6445C13.9582 10.9363 14.1222 11.3322 14.1222 11.7448V17.2222H17.2222V11.3336C17.2222 10.3729 16.8403 9.451 16.161 8.7717C15.4818 8.09265 14.5607 7.71166 13.6003 7.71159ZM4.31098 2.43381C3.81301 2.43385 3.33498 2.63074 2.98286 2.98286C2.63074 3.33498 2.43385 3.81301 2.43381 4.31098C2.43381 5.34427 3.27771 6.17723 4.31098 6.1773C4.80605 6.1773 5.28144 5.98158 5.63151 5.63151C5.98158 5.28144 6.1773 4.80605 6.1773 4.31098C6.17723 3.27771 5.34427 2.43381 4.31098 2.43381Z" fill="#828282"/>
</svg>
