<svg width="20" height="20" viewBox="0 0 20 20" fill="none" xmlns="http://www.w3.org/2000/svg">
<path d="M9.99999 0C15.4998 0 19.9997 4.50778 20 10.0598C20.0053 12.455 19.158 14.774 17.6103 16.5967C16.0626 18.4195 13.916 19.6263 11.5596 20V12.9719H13.8896L14.3398 10.0598H11.5596V8.17237C11.5597 7.3793 11.9506 6.60653 13.1904 6.60653H14.4502V4.12688C14.4502 4.12688 13.3097 3.93568 12.2197 3.93568C9.92999 3.93579 8.44057 5.32122 8.44042 7.84096V10.0598H5.90038V12.9719H8.44042V20C3.66042 19.247 0 15.0799 0 10.0598C0.000233328 4.50778 4.50014 0 9.99999 0Z" fill="#828282"/>
</svg>
